<?xml version="1.0" standalone="no"?>
<!DOCTYPE svg PUBLIC "-//W3C//DTD SVG 20010904//EN"
 "http://www.w3.org/TR/2001/REC-SVG-20010904/DTD/svg10.dtd">
<svg version="1.0" xmlns="http://www.w3.org/2000/svg"
 width="440.000000pt" height="440.000000pt" viewBox="0 0 440.000000 440.000000"
 preserveAspectRatio="xMidYMid meet">
<metadata>
Created by potrace 1.11, written by Peter Selinger 2001-2013
</metadata>
<g transform="translate(0.000000,440.000000) scale(0.100000,-0.100000)"
fill="#000000" stroke="none">
<path d="M2228 4078 c-7 -13 -22 -44 -34 -69 -24 -52 -34 -61 -73 -64 -71 -7
-121 -18 -121 -28 0 -7 25 -35 56 -63 l57 -51 -12 -82 c-7 -46 -10 -86 -6 -89
3 -3 39 11 79 32 l74 37 66 -35 c37 -20 72 -36 78 -36 10 0 9 21 -7 126 -7 39
-5 42 49 94 55 52 69 79 44 81 -130 8 -148 17 -185 91 -38 78 -48 86 -65 56z"/>
<path d="M1531 3764 c-17 -31 -33 -65 -36 -74 -6 -18 -15 -21 -127 -36 -27 -3
-48 -10 -48 -15 0 -4 25 -33 56 -64 l57 -56 -8 -47 c-16 -107 -17 -122 -6
-122 6 0 42 16 80 36 l70 36 64 -36 c35 -20 70 -36 77 -36 12 0 11 25 -5 127
-7 41 -6 42 49 94 31 28 56 57 56 64 0 7 -32 16 -77 23 -43 7 -81 16 -85 20
-3 4 -20 35 -37 69 -17 34 -35 64 -40 67 -5 4 -23 -19 -40 -50z"/>
<path d="M2822 3807 c-5 -6 -24 -40 -41 -74 -24 -47 -37 -63 -54 -65 -12 0
-26 -2 -32 -3 -5 -1 -31 -5 -57 -9 -27 -5 -48 -14 -48 -20 0 -6 25 -36 55 -66
59 -58 61 -66 35 -166 -15 -59 1 -63 82 -21 l73 38 65 -35 c85 -46 94 -46 86
2 -23 131 -24 126 38 188 31 31 56 60 56 64 0 4 -38 14 -84 20 l-84 13 -33 69
c-37 78 -42 83 -57 65z"/>
<path d="M2058 3236 c-1 -2 -46 -6 -98 -10 -52 -4 -106 -8 -120 -10 -296 -44
-554 -138 -715 -259 -70 -53 -85 -76 -86 -126 0 -25 0 -394 0 -819 -1 -659 1
-776 14 -795 25 -39 166 -177 272 -267 57 -48 260 -197 365 -266 199 -133 479
-294 510 -294 34 0 313 163 538 313 244 163 435 321 580 480 l42 47 0 823 0
823 -32 33 c-132 135 -446 263 -738 301 -47 6 -98 13 -115 16 -32 6 -411 14
-417 10z m477 -145 c288 -44 511 -123 651 -229 l49 -37 -1 -765 c-1 -421 -2
-770 -3 -777 -3 -29 -194 -205 -366 -334 -189 -142 -627 -419 -664 -419 -38 0
-433 245 -639 398 -152 112 -389 323 -393 349 -1 4 -2 354 -3 778 l-1 770 35
28 c149 121 408 205 765 250 61 8 502 -1 570 -12z"/>
<path d="M1722 2703 c-19 -9 -42 -33 -55 -57 -22 -41 -22 -43 -22 -641 0 -582
1 -601 20 -634 38 -65 87 -84 167 -68 44 9 73 43 89 101 7 25 12 139 12 291
l1 250 -49 0 -49 0 -2 -245 c-1 -319 0 -306 -42 -315 -51 -9 -51 -8 -52 619 0
513 2 584 15 604 9 12 24 22 34 22 42 0 46 -20 48 -284 1 -138 2 -255 2 -259
1 -4 22 -7 48 -5 l47 3 -1 247 c-1 251 -7 302 -42 341 -37 43 -116 57 -169 30z"/>
<path d="M1340 2011 c0 -550 3 -700 13 -703 6 -2 28 -4 47 -4 l35 1 2 360 c0
198 2 365 2 372 1 8 20 11 60 10 65 -2 73 7 61 63 -5 24 -9 25 -62 25 -45 -1
-58 3 -59 15 -3 61 -4 448 -1 458 3 8 26 12 68 12 l64 0 0 45 0 45 -115 0
-115 0 0 -699z"/>
<path d="M2170 2697 c0 -7 6 -62 14 -123 8 -60 18 -134 21 -164 4 -30 17 -134
29 -230 l22 -174 -22 -161 c-23 -170 -31 -227 -39 -302 -3 -27 -8 -57 -10 -68
-3 -18 -13 -96 -18 -149 -2 -16 6 -19 71 -20 40 -1 77 1 82 4 9 5 13 41 25
195 4 44 8 100 10 125 3 25 7 79 10 120 9 109 22 113 29 9 12 -161 19 -242 32
-379 3 -36 10 -67 15 -71 10 -6 158 -4 164 3 2 1 -1 26 -5 53 -4 28 -11 77
-14 110 -4 33 -13 105 -21 160 -14 96 -19 135 -31 235 -3 25 -7 57 -10 72 -8
49 -7 102 5 188 11 81 16 117 26 203 8 59 13 104 30 232 8 65 15 125 15 132 0
21 -162 14 -165 -7 -1 -8 -5 -58 -9 -110 -6 -90 -13 -178 -21 -280 -2 -25 -4
-63 -4 -84 -2 -75 -20 -23 -26 74 -4 52 -8 113 -10 135 -2 22 -7 92 -10 155
-4 63 -9 118 -12 123 -2 4 -42 7 -89 7 -63 0 -84 -3 -84 -13z"/>
<path d="M2659 2708 c-1 -2 -2 -317 -3 -700 -1 -461 2 -699 9 -701 5 -2 64 -2
131 -1 174 3 217 28 248 146 17 65 20 537 4 595 -12 48 -43 81 -82 91 l-31 8
40 20 c66 32 80 68 82 214 1 69 -3 148 -9 177 -13 64 -61 125 -112 140 -30 9
-274 19 -277 11z m212 -179 c12 -24 17 -241 5 -276 -4 -14 -15 -23 -27 -23
-18 0 -19 9 -19 160 0 134 2 160 15 160 8 0 19 -10 26 -21z m1 -467 c8 -8 11
-93 11 -293 0 -262 -1 -283 -18 -296 -11 -7 -22 -13 -27 -13 -4 0 -8 139 -8
309 0 270 2 309 15 307 8 -1 20 -7 27 -14z"/>
<path d="M1724 1061 l-1 -100 61 0 c41 0 67 6 79 16 19 18 23 63 6 80 -7 7 -8
17 -1 29 10 19 0 63 -15 65 -4 0 -35 3 -69 5 l-60 5 0 -100z m102 48 c8 -13
-13 -29 -38 -29 -11 0 -18 8 -18 20 0 15 7 20 24 20 14 0 28 -5 32 -11z m6
-77 c16 -16 0 -32 -31 -32 -34 0 -40 6 -34 29 5 19 47 21 65 3z"/>
<path d="M1910 1059 l0 -99 70 0 c63 0 70 2 70 20 0 17 -7 20 -49 20 -44 0
-50 2 -48 20 1 22 5 23 55 22 26 -1 32 2 32 18 0 12 -7 21 -17 21 -10 1 -29 2
-43 3 -15 1 -25 7 -25 16 0 11 12 15 48 15 41 0 47 3 47 20 0 19 -7 21 -70 22
l-70 2 0 -100z"/>
<path d="M2080 1060 c0 -98 0 -100 23 -100 21 0 24 4 22 35 -4 46 18 46 47 0
17 -26 30 -35 50 -35 l27 0 -24 37 -25 36 20 22 c22 23 20 59 -4 83 -9 9 -39
16 -75 18 l-61 3 0 -99z m105 35 c0 -16 -7 -20 -30 -20 -20 0 -30 5 -31 15 -1
25 7 31 34 28 19 -2 27 -9 27 -23z"/>
<path d="M2270 1060 l0 -100 65 0 c58 0 65 2 65 20 0 17 -7 20 -45 20 l-45 0
0 80 c0 73 -2 80 -20 80 -19 0 -20 -7 -20 -100z"/>
<path d="M2429 1158 c-1 -2 -2 -47 -3 -100 -2 -97 -2 -98 21 -98 23 0 24 1 21
97 -3 84 -6 98 -20 101 -10 2 -19 2 -19 0z"/>
<path d="M2509 1138 c0 -13 -1 -57 -1 -98 0 -68 2 -75 20 -78 19 -3 21 3 24
60 l3 63 34 -62 c29 -53 38 -63 61 -63 l27 0 -2 95 c-1 99 -4 111 -30 102 -11
-5 -15 -21 -15 -64 l0 -58 -32 55 c-35 60 -44 70 -70 70 -12 0 -18 -8 -19 -22z"/>
</g>
</svg>
