<?xml version="1.0" standalone="no"?>
<!DOCTYPE svg PUBLIC "-//W3C//DTD SVG 20010904//EN"
 "http://www.w3.org/TR/2001/REC-SVG-20010904/DTD/svg10.dtd">
<svg version="1.0" xmlns="http://www.w3.org/2000/svg"
 width="286.000000pt" height="286.000000pt" viewBox="0 0 286.000000 286.000000"
 preserveAspectRatio="xMidYMid meet">
<metadata>
Created by potrace 1.11, written by Peter Selinger 2001-2013
</metadata>
<g transform="translate(0.000000,286.000000) scale(0.100000,-0.100000)"
fill="#000000" stroke="none">
<path d="M1265 2854 c-308 -24 -535 -77 -724 -169 -109 -53 -183 -101 -234
-150 l-37 -36 0 -824 0 -823 48 -57 c89 -104 298 -281 497 -420 211 -147 577
-365 614 -365 23 0 292 152 451 255 247 159 459 326 608 478 l102 104 0 824 0
825 -42 41 c-155 147 -454 261 -798 303 -93 11 -405 20 -485 14z m-169 -539
c14 -9 34 -35 45 -58 17 -38 19 -68 19 -299 l0 -258 -44 0 -45 0 -3 258 c-3
272 -7 292 -49 292 -10 0 -25 -10 -33 -22 -14 -20 -16 -94 -16 -605 0 -570 0
-583 20 -603 22 -22 29 -24 48 -12 25 17 32 82 32 319 l0 243 46 0 45 0 -3
-277 c-3 -243 -5 -282 -21 -310 -23 -43 -64 -63 -128 -63 -44 0 -55 4 -84 33
-54 54 -56 80 -53 708 3 559 3 564 25 605 12 23 36 48 55 58 40 20 106 16 144
-9z m-296 -30 l0 -45 -65 0 -65 0 0 -245 0 -245 60 0 60 0 0 -40 0 -40 -60 0
-60 0 0 -370 0 -370 -50 0 -50 0 0 700 0 700 115 0 115 0 0 -45z m793 -220
c25 -353 28 -354 51 -20 10 132 19 250 22 263 4 21 9 22 84 22 57 0 80 -4 80
-12 0 -7 -18 -155 -40 -328 -22 -173 -40 -334 -40 -358 0 -39 74 -629 85 -680
5 -22 4 -22 -85 -22 -49 0 -90 3 -90 7 0 33 -42 509 -46 512 -2 2 -6 2 -9 0
-3 -4 -45 -475 -45 -511 0 -5 -38 -8 -83 -8 l-84 0 23 172 c13 95 33 253 46
350 l23 178 -39 312 c-21 172 -41 330 -44 351 l-5 38 89 -3 89 -3 18 -260z
m570 251 c86 -31 118 -94 125 -243 8 -184 -16 -267 -86 -288 -35 -10 -43 -25
-13 -25 34 0 78 -46 90 -94 14 -57 15 -493 1 -567 -15 -76 -41 -121 -86 -146
-35 -20 -53 -23 -171 -23 l-133 0 0 700 0 700 118 0 c72 -1 132 -6 155 -14z
m-1089 -1545 c27 -11 36 -35 25 -68 -5 -13 -4 -25 1 -28 6 -4 10 -19 10 -35 0
-41 -32 -60 -102 -60 l-58 0 0 100 0 100 49 0 c27 0 61 -4 75 -9z m206 -11 c0
-17 -7 -20 -50 -20 -43 0 -50 -3 -50 -20 0 -17 7 -20 45 -20 38 0 45 -3 45
-20 0 -17 -7 -20 -45 -20 -38 0 -45 -3 -45 -20 0 -17 7 -20 50 -20 43 0 50 -3
50 -20 0 -18 -7 -20 -70 -20 l-70 0 0 100 0 100 70 0 c63 0 70 -2 70 -20z
m165 -5 c30 -29 31 -45 6 -77 -19 -24 -19 -25 0 -54 25 -38 24 -44 -4 -44 -17
0 -29 10 -43 35 -10 20 -26 35 -36 35 -14 0 -18 -8 -18 -35 0 -28 -4 -35 -20
-35 -19 0 -20 7 -20 100 l0 100 55 0 c46 0 60 -4 80 -25z m95 -55 l0 -80 45 0
c38 0 45 -3 45 -20 0 -18 -7 -20 -65 -20 l-65 0 0 100 c0 93 1 100 20 100 18
0 20 -7 20 -80z m160 -20 l0 -100 -25 0 c-25 0 -25 0 -25 93 0 52 3 97 7 100
3 4 15 7 25 7 16 0 18 -10 18 -100z m124 38 l35 -63 1 63 c0 60 1 63 23 60 21
-3 22 -8 25 -100 l3 -98 -29 0 c-24 0 -33 9 -63 61 l-34 62 -3 -62 c-3 -53 -6
-61 -22 -61 -19 0 -20 7 -20 100 0 99 0 100 24 100 19 0 32 -13 60 -62z"/>
<path d="M2060 2010 c0 -150 1 -160 19 -160 28 0 31 18 31 164 0 132 -6 156
-37 156 -10 0 -13 -35 -13 -160z"/>
<path d="M2060 1390 c0 -319 2 -334 38 -298 17 17 17 579 0 596 -36 36 -38 21
-38 -298z"/>
<path d="M1000 720 c0 -17 5 -21 28 -18 16 2 27 9 27 18 0 9 -11 16 -27 18
-23 3 -28 -1 -28 -18z"/>
<path d="M1000 640 c0 -18 5 -21 33 -18 20 2 32 8 32 18 0 10 -12 16 -32 18
-28 3 -33 0 -33 -18z"/>
<path d="M1357 734 c-4 -4 -7 -16 -7 -26 0 -16 6 -19 33 -16 24 2 32 8 32 23
0 14 -8 21 -25 23 -14 2 -29 0 -33 -4z"/>
</g>
</svg>
