<svg height="372" viewBox="0 0 234 372" width="234" xmlns="http://www.w3.org/2000/svg"><g fill="#fffffe" fill-rule="nonzero" transform="translate(0 -1)"><path d="m116.9447 87.2424c83.473 0 113.299 32.922 114.529 34.323 1.006 1.146 1.563 2.623 1.563 4.153v159.735c0 1.363-.442 2.692-1.263 3.784-1.114 1.48-28.183 36.703-111.824 82.11-.938.507-1.968.761-3 .761h-.01c-1.031 0-2.061-.254-2.998-.761-83.646-45.407-110.711-80.63-111.826-82.11-.815-1.092-1.262-2.417-1.262-3.782v-159.742c0-1.526.557-3.002 1.562-4.148 1.231-1.401 31.056-34.323 114.529-34.323zm-85.8624 193.1535h9.638v-74.121h12.442v-8.762h-12.442v-48.538h13.317v-8.762h-22.955zm59.2275-64.4844h-9.638v46.087c0 7.884-1.578 10.688-4.906 10.688s-4.907-2.804-4.907-10.688v-103.386c0-7.886 1.579-10.69 4.907-10.69s4.906 2.804 4.906 10.69v44.332h9.638v-43.106c0-16.471-6.483-20.676-14.544-20.676s-14.543 4.205-14.543 20.676v100.932c0 16.471 6.482 20.678 14.543 20.678s14.544-4.207 14.544-20.678zm32.2422-5.957-9.287 70.441h16.646l4.206-52.567h1.752l4.206 52.567h17.698l-9.286-70.441 8.759-69.741h-16.645l-3.856 52.568h-1.578l-3.677-52.568h-17.7zm80.2566 43.9818v-39.777c0-11.215-3.504-16.646-11.74-17.698v-1.051c8.411-.701 11.74-7.71 11.74-17.699v-12.791c0-20.502-9.462-24.707-19.977-24.707h-20.325v140.184h20.325c10.515 0 19.977-4.206 19.977-26.461zm-63.4446 60.9267h4.423v-19.601h-4.423zm8.3462-19.6009v19.601h4.339v-12.712h.112l7.225 12.712h5.207v-19.601h-4.368v12.796h-.113l-7.221-12.796zm-19.5 0h-4.396v19.601h13.299v-3.921h-8.903zm-40.2548 19.6006h13.999v-3.892h-9.603v-4.256h8.736v-3.919h-8.736v-3.614h9.603v-3.92h-13.999zm32.7392-13.3559c0-3.332-2.519-6.245-6.69-6.245h-8.96v19.601h4.394v-6.916h2.743l4.23 6.916h5.152v-.28l-4.733-7.168c2.381-.952 3.864-3.08 3.864-5.908zm-6.917 2.519h-4.339v-4.844h4.339c1.71 0 2.41 1.177 2.41 2.353 0 1.231-.644 2.491-2.41 2.491zm66.25-148.0425h1.578c2.103 0 3.681 2.103 3.681 8.237v14.017c0 7.885-.351 9.989-4.207 9.989h-1.052zm0 108.643v-61.331h1.052c3.856 0 4.207 2.103 4.207 9.988v43.108c0 6.131-.351 8.235-3.681 8.235zm-101.7158 46.3448h-4.647v-4.34h4.647c1.902 0 2.491 1.175 2.491 2.156 0 1.176-.615 2.184-2.491 2.184zm-4.647-11.844h4.366c1.485 0 2.073.784 2.073 1.847 0 1.064-.588 1.849-2.073 1.849h-4.366zm8.988 5.347v-.111c.979-.7 1.904-1.877 1.904-4.004 0-3.221-2.382-5.097-5.881-5.097h-9.38v19.601h9.745c3.834 0 6.243-2.073 6.243-5.657 0-2.575-1.035-3.976-2.631-4.732z"/><g transform="translate(28 .276)"><path d="m117.8567 20.1892c.827-.808.371-2.213-.772-2.379l-14.628-2.126c-.454-.065-.846-.351-1.05-.763l-6.541-13.253c-.511-1.037-1.988-1.037-2.501 0l-6.541 13.253c-.203.412-.596.698-1.05.763l-14.627 2.126c-1.144.166-1.601 1.571-.773 2.379l10.584 10.315c.329.321.479.784.401 1.236l-2.499 14.566c-.194 1.14 1.001 2.009 2.024 1.471l13.083-6.878c.406-.213.891-.213 1.298 0l13.082 6.878c1.023.538 2.219-.331 2.023-1.471l-2.374-13.845c-.155-.904.144-1.827.802-2.467z"/><path d="m49.8499 48.2048c.828-.807.371-2.213-.773-2.379l-14.627-2.126c-.454-.065-.846-.351-1.05-.762l-6.541-13.254c-.511-1.037-1.989-1.037-2.501 0l-6.541 13.254c-.203.411-.596.697-1.05.762l-14.627 2.126c-1.144.166-1.602 1.572-.773 2.379l10.584 10.315c.329.321.479.783.401 1.236l-2.498 14.567c-.195 1.139 1 2.008 2.022 1.47l13.083-6.878c.407-.213.892-.213 1.299 0l13.082 6.878c1.023.538 2.219-.331 2.023-1.47l-2.374-13.846c-.156-.903.145-1.827.801-2.467z"/><path d="m176.5227 48.2048c.827-.807.37-2.213-.772-2.379l-14.627-2.126c-.455-.065-.847-.351-1.05-.762l-6.541-13.254c-.513-1.037-1.99-1.037-2.501 0l-6.542 13.254c-.203.411-.596.697-1.05.762l-14.626 2.126c-1.145.166-1.602 1.572-.773 2.379l10.584 10.315c.328.321.477.783.401 1.236l-2.498 14.567c-.196 1.139 1 2.008 2.022 1.47l13.082-6.878c.408-.213.893-.213 1.298 0l13.082 6.878c1.025.538 2.22-.331 2.025-1.47l-2.375-13.846c-.156-.903.144-1.827.801-2.467z"/></g></g></svg>