<?xml version="1.0" encoding="UTF-8" standalone="no"?>
<svg width="686px" height="1056px" viewBox="0 0 686 1056" version="1.1" xmlns="http://www.w3.org/2000/svg" xmlns:xlink="http://www.w3.org/1999/xlink" xmlns:sketch="http://www.bohemiancoding.com/sketch/ns">
    <!-- Generator: Sketch 3.3.2 (12043) - http://www.bohemiancoding.com/sketch -->
    <title>pitch</title>
    <desc>Created with Sketch.</desc>
    <defs></defs>
    <g id="Page-1" stroke="none" stroke-width="1" fill="none" fill-rule="evenodd" sketch:type="MSPage">
        <g id="pitch" sketch:type="MSLayerGroup" transform="translate(343.000000, 528.000000) rotate(-90.000000) translate(-343.000000, -528.000000) translate(-182.000000, 188.000000)" stroke="#000000">
            <g id="Layer-1" transform="translate(0.000000, 0.000000)" sketch:type="MSShapeGroup">
                <path d="M525,0 L0,0 L0,680 L1050,680 L1050,0 L525,0 L525,680 L525,0 L525,0 Z" id="svg_2" stroke-width="5" fill="#FFFFFF"></path>
                <circle id="svg_3" stroke-width="5" fill-opacity="0" fill="#000000" cx="525" cy="340" r="91.5"></circle>
                <circle id="svg_4" fill="#000000" cx="525" cy="340" r="2"></circle>
                <circle id="svg_5" fill="#000000" cx="110" cy="340" r="2"></circle>
                <circle id="svg_6" fill="#000000" cx="940" cy="340" r="2"></circle>
                <path d="M0,249.399994 L55,249.399994 L55,431.600006 L0,431.600006 L0,249.399994 L0,249.399994 Z" id="svg_9" stroke-width="5" fill-opacity="0" fill="#000000"></path>
                <path d="M1050,249.399994 L995,249.399994 L995,431.600006 L1050,431.600006 L1050,249.399994 L1050,249.399994 Z" id="svg_10" stroke-width="5" fill-opacity="0" fill="#000000"></path>
                <path d="M0,139.399994 L165,139.399994 L165,541.599976 L0,541.599976 L0,139.399994 L0,139.399994 Z" id="svg_11" stroke-width="5" fill-opacity="0" fill="#000000"></path>
                <path d="M1050,139.399994 L885,139.399994 L885,541.599976 L1050,541.599976 L1050,139.399994 L1050,139.399994 Z" id="svg_12" stroke-width="5" fill-opacity="0" fill="#000000"></path>
                <path d="M165,266.875 C187.981508,284.160192 201.500142,311.243652 201.500142,340 C201.500142,368.756348 187.981508,395.839808 165,413.125 L165,266.875 L165,266.875 Z" id="svg_13" stroke-width="5" fill="#FFFFFF"></path>
                <path d="M885,266.875 C862.018492,284.160192 848.499858,311.243652 848.499858,340 C848.499858,368.756348 862.018492,395.839808 885,413.125 L885,266.875 L885,266.875 Z" id="svg_14" stroke-width="5" fill="#FFFFFF"></path>
                <path d="M0,10 C5.5228475,10 10,5.5228475 10,-8.8817842e-16 L0,-8.8817842e-16 L0,10 L0,10 Z" id="svg_15" stroke-width="5" fill-opacity="0" fill="#000000"></path>
                <path d="M10,680 C10,674.477153 5.5228475,670 0,670 L0,680 L10,680 L10,680 Z" id="svg_16" stroke-width="5" fill-opacity="0" fill="#000000"></path>
                <path d="M1050,670 C1044.47715,670 1040,674.477153 1040,680 L1050,680 L1050,670 L1050,670 Z" id="svg_17" stroke-width="5" fill-opacity="0" fill="#000000"></path>
                <path d="M1040,-8.8817842e-16 C1040,5.5228475 1044.47715,10 1050,10 L1050,-8.8817842e-16 L1040,-8.8817842e-16 L1040,-8.8817842e-16 Z" id="svg_18" stroke-width="5" fill-opacity="0" fill="#000000"></path>
            </g>
        </g>
    </g>
</svg>